HIERARCHY
ROOT Wrist_L
{
	OFFSET 0.00 0.00 0.00
	CHANNELS 6 Xposition Yposition Zposition Xrotation Yrotation Zrotation
	Joint Little_Metacarpal_L
	{
		OFFSET -0.028707 0.002084 -0.027748
		CHANNELS 3 Xrotation Yrotation Zrotation
		Joint Little_Proximal_L
		{
			OFFSET -0.033639 -0.008508 -0.095537
			CHANNELS 3 Xrotation Yrotation Zrotation
			Joint Little_Intermediate_L
			{
				OFFSET -0.014886 -0.012114 -0.055495
				CHANNELS 3 Xrotation Yrotation Zrotation
				Joint Little_Distal_L
				{
					OFFSET -0.006141 -0.007774 -0.023711
					CHANNELS 3 Xrotation Yrotation Zrotation
					Joint Little_Tip_L
					{
						OFFSET -0.00227 -0.009647 -0.019238
						CHANNELS 3 Xrotation Yrotation Zrotation
						End Site
						{
							OFFSET 0.001 0.001 0.001
						}
					}
				}
			}
		}
	}
	Joint Ring_Metacarpal_L
	{
		OFFSET -0.012366 0.001725 -0.029352
		CHANNELS 3 Xrotation Yrotation Zrotation
		Joint Ring_Proximal_L
		{
			OFFSET -0.018549 0.010541 -0.117421
			CHANNELS 3 Xrotation Yrotation Zrotation
			Joint Ring_Intermediate_L
			{
				OFFSET -0.014284 -0.016597 -0.060738
				CHANNELS 3 Xrotation Yrotation Zrotation
				Joint Ring_Distal_L
				{
					OFFSET -0.005423 -0.013867 -0.033029
					CHANNELS 3 Xrotation Yrotation Zrotation
					Joint Ring_Tip_L
					{
						OFFSET -0.002835 -0.011872 -0.02616
						CHANNELS 3 Xrotation Yrotation Zrotation
						End Site
						{
							OFFSET 0.001 0.001 0.001
						}
					}
				}
			}
		}
	}
	Joint Middle_Metacarpal_L
	{
		OFFSET 0.001855 0.002895 -0.025812
		CHANNELS 3 Xrotation Yrotation Zrotation
		Joint Palm_L
		{
			OFFSET 0.00053 0.012199 -0.064706
			CHANNELS 3 Xrotation Yrotation Zrotation
			Joint Middle_Proximal_L
			{
				OFFSET 0.00053 0.002961 -0.064706
				CHANNELS 3 Xrotation Yrotation Zrotation
				Joint Middle_Intermediate_L
				{
					OFFSET -0.000036 -0.01298 -0.061775
					CHANNELS 3 Xrotation Yrotation Zrotation
					Joint Middle_Distal_L
					{
						OFFSET 0.000274 -0.015333 -0.053566
						CHANNELS 3 Xrotation Yrotation Zrotation
						Joint Middle_Tip_L
						{
							OFFSET -0.000548 -0.007813 -0.02408
							CHANNELS 3 Xrotation Yrotation Zrotation
							End Site
							{
								OFFSET 0.001 0.001 0.001
							}
						}
					}
				}
			}
		}
	}
	Joint Index_Metacarpal_L
	{
		OFFSET 0.015899 0.00425 -0.023128
		CHANNELS 3 Xrotation Yrotation Zrotation
		Joint Index_Proximal_L
		{
			OFFSET 0.015536 0.014243 -0.130857
			CHANNELS 3 Xrotation Yrotation Zrotation
			Joint Index_Intermediate_L
			{
				OFFSET 0.010432 -0.007019 -0.058063
				CHANNELS 3 Xrotation Yrotation Zrotation
				Joint Index_Distal_L
				{
					OFFSET 0.008816 -0.004391 -0.036962
					CHANNELS 3 Xrotation Yrotation Zrotation
					Joint Index_Tip_L
					{
						OFFSET 0.005635 -0.01015 -0.025037
						CHANNELS 3 Xrotation Yrotation Zrotation
						End Site
						{
							OFFSET 0.001 0.001 0.001
						}
					}
				}
			}
		}
	}
	Joint Thumb_Metacarpal_L
	{
		OFFSET 0.029443 -0.001235 -0.02009
		CHANNELS 3 Xrotation Yrotation Zrotation
		Joint Thumb_Proximal_L
		{
			OFFSET 0.045426 -0.009009 -0.055883
			CHANNELS 3 Xrotation Yrotation Zrotation
			Joint Thumb_Distal_L
			{
				OFFSET 0.036738 -0.017865 -0.036781
				CHANNELS 3 Xrotation Yrotation Zrotation
				Joint Thumb_Tip_L
				{
					OFFSET 0.021267 -0.018606 -0.029161
					CHANNELS 3 Xrotation Yrotation Zrotation
					End Site
					{
						OFFSET 0.001 0.001 0.001
					}
				}
			}
		}
	}
}
MOTION
Frames: 16
Frame Time: 1
0.3371 0.4987 0.6149 29.806454 77.660979 -47.390711 0.00 0.00 0.00 -56.031402 24.167118 -37.106119 -55.545868 -72.572037 74.551911 -46.704878 1.256442 24.447875 0.00 0.00 0.00 0.00 0.00 0.00 -47.646327 4.309476 -8.560489 -80.599681 -10.88258 1.766576 -50.747394 -10.635616 18.190162 0.00 0.00 0.00 0.00 0.00 0.00 0.00 0.00 0.00 -14.693625 5.930166 -12.402233 -76.198731 -19.499896 14.269999 -57.144354 -24.938062 37.013447 0.00 0.00 0.00 0.00 0.00 0.00 -29.016529 -0.636378 -19.949249 -88.491822 107.230104 -111.484649 -31.92482 0.444204 0.168406 0.00 0.00 0.00 -10.781787 4.068867 -20.59042 17.402992 -5.076478 -28.972023 -13.814933 14.889312 21.47121 0.00 0.00 0.00 
0.4053 -0.04656 1.019 -9.219025 60.318801 112.228573 0.00 0.00 0.00 -33.057719 -17.923248 19.413167 -51.042956 -71.254842 72.910268 24.032396 3.652774 14.530104 0.00 0.00 0.00 0.00 0.00 0.00 -38.181451 -10.968029 13.651299 -69.993074 -111.384587 103.89831 9.581014 -8.693181 13.415653 0.00 0.00 0.00 0.00 0.00 0.00 0.00 0.00 0.00 -35.936426 3.640887 -7.143119 -70.707559 -126.732357 123.73986 6.965853 -9.593641 6.873611 0.00 0.00 0.00 0.00 0.00 0.00 -49.272892 2.46909 -24.790214 -71.778656 -98.0477 93.689992 19.221549 -2.143281 21.035152 0.00 0.00 0.00 -31.414847 -0.68309 -7.650581 17.397518 -4.949707 -28.548106 6.729275 14.764434 23.459548 0.00 0.00 0.00 
-0.0304 0.1965 0.4632 19.007044 -123.788914 -108.782162 0.00 0.00 0.00 -23.713785 -10.129108 3.157602 -41.862608 -10.45437 -4.88734 15.232333 1.543567 8.276434 0.00 0.00 0.00 0.00 0.00 0.00 -18.533971 -6.11705 3.607711 -36.664664 1.529766 -18.036212 -3.755883 -8.630042 14.649982 0.00 0.00 0.00 0.00 0.00 0.00 0.00 0.00 0.00 -18.616019 2.880539 -5.502986 -42.509233 6.456251 -15.386316 -6.730085 -9.589376 8.93493 0.00 0.00 0.00 0.00 0.00 0.00 -27.793621 -2.175891 -17.470579 -33.030344 -5.754363 -8.507301 5.18673 -3.448089 14.914642 0.00 0.00 0.00 -58.855501 19.743459 -35.393108 28.676064 2.476674 -9.804798 -2.790671 14.954844 28.977177 0.00 0.00 0.00 
0.01743 0.03776 0.678 -1.990246 46.172898 159.561552 0.00 0.00 0.00 -54.618827 -28.20106 30.440852 -64.642795 -68.349198 63.283936 -7.748162 1.782964 11.869546 0.00 0.00 0.00 0.00 0.00 0.00 -59.208478 -18.953865 22.689603 -78.016279 -49.646364 38.004071 -11.721829 -9.123949 18.307654 0.00 0.00 0.00 0.00 0.00 0.00 0.00 0.00 0.00 -58.647809 11.488267 -18.427038 -82.533656 57.351534 -68.880409 -10.645703 -9.612896 9.090571 0.00 0.00 0.00 0.00 0.00 0.00 -12.274177 -2.572371 -16.323867 -12.151764 -8.30806 -1.975692 13.640382 -5.661365 1.47976 0.00 0.00 0.00 -26.238334 21.769597 -38.268628 33.406903 -20.726441 -53.189121 32.116369 7.186294 0.271096 0.00 0.00 0.00 
0.4945 0.06917 0.54 -10.097412 100.687029 105.130477 0.00 0.00 0.00 -26.611875 -20.193439 18.529151 -47.994339 -78.278469 75.078355 23.898091 1.520384 10.071377 0.00 0.00 0.00 0.00 0.00 0.00 -36.664855 -13.306535 15.234023 -57.139986 -101.091424 92.276737 12.693636 -9.164637 13.615868 0.00 0.00 0.00 0.00 0.00 0.00 0.00 0.00 0.00 -36.029046 -0.468189 -2.528324 -72.493968 -138.619755 126.776903 13.951338 -9.328511 18.702783 0.00 0.00 0.00 0.00 0.00 0.00 -48.630076 2.48008 -25.779912 -58.045195 -77.02142 93.20819 13.114817 -6.270434 -1.152252 0.00 0.00 0.00 -34.434863 9.137868 -13.609498 24.189419 -8.518478 -28.235 6.866852 11.455186 12.712135 0.00 0.00 0.00 
0.7978 0.1797 0.2696 7.236299 -31.768535 -109.9296 0.00 0.00 0.00 -17.760155 -28.736754 40.841639 -23.322185 -50.979405 30.790175 -0.288277 14.778602 68.174181 0.00 0.00 0.00 0.00 0.00 0.00 -18.353808 -11.6442 11.681802 -56.130792 -52.818539 35.85072 -19.416775 -11.099276 44.551128 0.00 0.00 0.00 0.00 0.00 0.00 0.00 0.00 0.00 10.08932 0.845654 -7.910838 -13.430339 5.879905 -25.071591 7.519967 -8.161062 24.954258 0.00 0.00 0.00 0.00 0.00 0.00 19.499352 8.841442 -46.526419 6.47765 -20.014327 0.104373 23.286483 -2.675262 10.278323 0.00 0.00 0.00 -19.595514 -1.314961 8.976614 16.811141 -5.985355 -21.025235 17.294609 11.146045 11.241235 0.00 0.00 0.00 
0.4839 -0.05928 0.728 21.442436 28.713682 -135.823926 0.00 0.00 0.00 5.597679 -21.909473 -16.903793 -2.242218 -40.371394 -14.045738 32.607566 6.59157 40.466429 0.00 0.00 0.00 0.00 0.00 0.00 18.0393 -11.592963 -5.916011 -10.968285 -17.788611 -19.750573 20.843924 -11.440341 19.252348 0.00 0.00 0.00 0.00 0.00 0.00 0.00 0.00 0.00 8.745457 1.595097 -3.333296 -11.64687 1.029566 -2.996388 5.285223 -10.51089 4.116158 0.00 0.00 0.00 0.00 0.00 0.00 -5.136579 12.81407 -16.196117 -11.456128 -20.373858 8.267745 13.701786 -9.189192 -9.993063 0.00 0.00 0.00 -13.990732 10.102481 -29.152856 24.659614 -3.639776 -14.422221 7.632245 15.548048 31.366186 0.00 0.00 0.00 
0.08413 -0.07382 0.5242 8.881597 42.469737 -162.490269 0.00 0.00 0.00 2.603691 -20.658274 0.4539 13.4962 -37.348345 15.807863 -11.449554 -1.007289 3.391963 0.00 0.00 0.00 0.00 0.00 0.00 9.046247 -11.796567 -6.782783 -10.12491 -25.32233 19.816482 -8.183125 -13.418993 2.009566 0.00 0.00 0.00 0.00 0.00 0.00 0.00 0.00 0.00 3.361087 1.261128 -6.495984 -35.252293 -0.850688 1.62657 7.676801 -10.524381 3.996654 0.00 0.00 0.00 0.00 0.00 0.00 -0.299929 12.244318 -4.236509 -23.053847 -19.546306 5.492642 20.064628 -9.676763 -11.669211 0.00 0.00 0.00 -45.604507 8.889844 -26.805182 41.109191 -13.070006 -31.52302 4.671196 14.620298 22.727748 0.00 0.00 0.00 
0.02147 0.05506 0.5841 -1.874672 -30.362783 -88.345478 0.00 0.00 0.00 -31.254461 -24.32277 14.555627 -3.645515 -32.570368 67.13606 -25.113236 -2.516013 8.165066 0.00 0.00 0.00 0.00 0.00 0.00 -17.860566 -12.515763 2.30073 -35.234183 -35.586983 45.435668 -21.127612 -15.335047 9.524425 0.00 0.00 0.00 0.00 0.00 0.00 0.00 0.00 0.00 -14.88923 1.9725 -13.48089 -47.200934 2.66677 -3.679564 -16.992379 -11.105754 10.982204 0.00 0.00 0.00 0.00 0.00 0.00 9.115606 11.839981 -9.476175 -21.612703 -15.309347 -5.626613 19.934913 -7.085438 -4.102333 0.00 0.00 0.00 -18.044827 4.981877 -19.614159 23.9802 -16.882911 -38.5256 3.809349 12.717084 -2.593696 0.00 0.00 0.00 
0.4945 0.3547 0.03535 13.671738 -6.518577 -92.022374 0.00 0.00 0.00 -10.735194 -28.97926 27.298712 -8.268937 -32.296 64.495045 -7.244064 -14.582526 49.248765 0.00 0.00 0.00 0.00 0.00 0.00 -8.242384 -14.188993 9.674348 -47.599571 -46.800699 62.221118 -27.237118 -21.584585 24.684908 0.00 0.00 0.00 0.00 0.00 0.00 0.00 0.00 0.00 10.449768 1.752917 -7.954035 -6.787859 1.666985 -1.61265 -4.06871 -9.385824 1.651316 0.00 0.00 0.00 0.00 0.00 0.00 39.836047 9.182073 -15.657462 -9.742326 -13.791532 -11.209316 18.964966 -5.79435 -0.226437 0.00 0.00 0.00 -23.482008 -5.586371 9.598169 18.856803 -13.016975 -27.975623 10.133137 14.940578 15.547473 0.00 0.00 0.00 
0.3847 -0.04746 0.5389 -16.354434 50.614058 -148.603073 0.00 0.00 0.00 -7.874099 -23.513065 -5.590397 -12.346968 -21.877366 10.525839 16.891094 -19.495419 -3.781065 0.00 0.00 0.00 0.00 0.00 0.00 8.075607 -14.171303 -2.307836 -18.920104 -8.422617 -0.945511 5.324939 -15.928087 -3.334997 0.00 0.00 0.00 0.00 0.00 0.00 0.00 0.00 0.00 1.596414 2.066482 -4.975298 -16.48089 2.196925 -4.230622 -1.216186 -9.504766 4.230108 0.00 0.00 0.00 0.00 0.00 0.00 0.289711 6.095209 -24.11184 -13.2124 -18.134705 10.359838 6.071266 -6.164082 -1.921247 0.00 0.00 0.00 -14.874441 3.328814 -17.028674 17.956692 -10.835187 -21.073736 1.992998 15.470423 20.548066 0.00 0.00 0.00 
0.3715 -0.0167 0.218 27.632177 -60.650133 -130.946297 0.00 0.00 0.00 9.757515 -22.936016 28.099395 -13.6818 -28.443998 39.107877 8.015815 -14.532657 18.877709 0.00 0.00 0.00 0.00 0.00 0.00 -6.551862 -13.846141 21.593631 -36.215326 -12.639179 8.047506 -10.736383 -16.823861 15.289548 0.00 0.00 0.00 0.00 0.00 0.00 0.00 0.00 0.00 -14.922135 3.032525 -13.200962 -32.557357 3.255955 -6.757101 -17.887871 -9.945596 6.858174 0.00 0.00 0.00 0.00 0.00 0.00 -0.973502 6.135278 -30.818647 -31.508824 -16.126953 5.152487 2.449143 -6.427827 -5.468718 0.00 0.00 0.00 -13.513602 -0.996039 0.478536 -9.895882 -11.676094 -32.647102 15.818443 8.548374 -21.848076 0.00 0.00 0.00 
0.3315 0.02799 1.21 25.02861 -171.869881 92.521299 0.00 0.00 0.00 -25.151099 -25.093806 43.379255 -35.114911 -32.108234 47.809866 -2.941133 -16.77204 -28.57537 0.00 0.00 0.00 0.00 0.00 0.00 -27.468437 -13.541555 20.569873 -40.794469 -18.864858 18.023881 1.343691 -15.06841 -5.792209 0.00 0.00 0.00 0.00 0.00 0.00 0.00 0.00 0.00 -9.143969 0.640571 -1.778408 -37.403113 -2.480376 3.222898 6.53677 -8.946954 -2.988392 0.00 0.00 0.00 0.00 0.00 0.00 -15.854858 3.810908 -15.163667 -23.039201 -14.721817 2.095114 16.447838 -5.648419 -0.758976 0.00 0.00 0.00 -0.292862 0.53743 -12.144408 8.337829 -11.829101 -21.571035 -6.060441 12.261651 19.184333 0.00 0.00 0.00 
0.1052 0.02374 0.564 -0.702878 30.861025 -139.53123 0.00 0.00 0.00 0.459591 -24.570596 40.993371 -4.584279 -28.874188 38.638606 32.708017 -0.443221 27.428081 0.00 0.00 0.00 0.00 0.00 0.00 -10.601541 -20.288109 40.841444 -30.772266 -32.836288 41.606661 -4.701825 -16.240059 32.631389 0.00 0.00 0.00 0.00 0.00 0.00 0.00 0.00 0.00 -36.807551 -3.250002 7.880423 -56.580928 -10.664222 14.242678 -36.397429 -18.582383 30.876229 0.00 0.00 0.00 0.00 0.00 0.00 -26.243977 10.989618 -34.897048 -41.103723 -17.50781 7.274487 -16.183401 -5.641773 2.00519 0.00 0.00 0.00 -18.71661 -0.357372 -6.799254 -1.803195 -12.784098 -38.145138 17.074607 11.176593 8.141481 0.00 0.00 0.00 
0.63 0.2363 0.7553 14.037976 -42.506651 -141.905322 0.00 0.00 0.00 -30.889264 -23.593126 37.408389 -31.717425 -30.912251 44.992727 7.633355 -21.485477 -28.03863 0.00 0.00 0.00 0.00 0.00 0.00 -30.102396 -13.174381 20.86159 -40.037845 -20.094514 19.85952 0.805964 -14.616345 -12.584008 0.00 0.00 0.00 0.00 0.00 0.00 0.00 0.00 0.00 -9.038706 0.36446 -1.112694 -34.654416 -1.76415 2.038631 3.511375 -8.000479 -3.311639 0.00 0.00 0.00 0.00 0.00 0.00 -15.551545 3.300366 -13.648955 -24.387399 -13.066522 -0.839623 16.393251 -5.646278 -0.348809 0.00 0.00 0.00 -0.643496 0.884918 -14.086146 11.188974 -11.094802 -17.843622 -1.174757 12.296215 16.121733 0.00 0.00 0.00 
0.2926 0.2985 0.4057 24.098113 47.253527 -132.51627 0.00 0.00 0.00 -10.583985 -7.177329 -6.293532 -11.49249 -12.567433 -1.709038 35.922458 -16.976613 -16.289197 0.00 0.00 0.00 0.00 0.00 0.00 5.529404 -6.596744 -7.97394 -19.112398 -12.916918 5.614053 12.560421 -13.261441 -1.041641 0.00 0.00 0.00 0.00 0.00 0.00 0.00 0.00 0.00 8.101548 0.386893 -3.825945 -25.894868 -1.071443 0.668673 7.300114 -7.527855 1.699177 0.00 0.00 0.00 0.00 0.00 0.00 -0.536763 2.600506 -8.693536 -21.855513 -14.810739 3.599226 14.564835 -5.627171 -0.277233 0.00 0.00 0.00 -35.836005 1.494988 -15.943972 23.09781 -17.543162 -39.368189 7.37498 12.63444 22.352248 0.00 0.00 0.00 
